<svg width="500" height="400" viewBox="0 0 500 400" fill="none" xmlns="http://www.w3.org/2000/svg">
  <!-- Background -->
  <rect width="500" height="400" rx="16" fill="#1E3A4C"/>

  <!-- Large question mark -->
  <path d="M220 100C220 100 220 80 250 80C280 80 300 95 300 120C300 145 280 155 260 165C250 172 250 185 250 195" stroke="#D1B787" stroke-width="8" stroke-linecap="round" fill="none"/>
  <circle cx="250" cy="230" r="8" fill="#D1B787"/>

  <!-- Speech bubbles -->
  <rect x="100" y="260" width="120" height="60" rx="10" stroke="#D1B787" stroke-width="2" fill="none"/>
  <polygon points="140,320 150,340 160,320" stroke="#D1B787" stroke-width="2" fill="none"/>
  <line x1="120" y1="280" x2="200" y2="280" stroke="#D1B787" stroke-width="2" stroke-linecap="round" opacity="0.6"/>
  <line x1="120" y1="300" x2="180" y2="300" stroke="#D1B787" stroke-width="2" stroke-linecap="round" opacity="0.6"/>

  <rect x="280" y="270" width="120" height="60" rx="10" stroke="#D1B787" stroke-width="2" fill="none"/>
  <polygon points="340,330 350,350 360,330" stroke="#D1B787" stroke-width="2" fill="none"/>
  <line x1="300" y1="290" x2="380" y2="290" stroke="#D1B787" stroke-width="2" stroke-linecap="round" opacity="0.6"/>
  <line x1="300" y1="310" x2="360" y2="310" stroke="#D1B787" stroke-width="2" stroke-linecap="round" opacity="0.6"/>

  <!-- Decorative dots -->
  <circle cx="80" cy="80" r="3" fill="#D1B787" opacity="0.5"/>
  <circle cx="420" cy="80" r="3" fill="#D1B787" opacity="0.5"/>
  <circle cx="420" cy="200" r="3" fill="#D1B787" opacity="0.5"/>
</svg>
