<svg width="500" height="400" viewBox="0 0 500 400" fill="none" xmlns="http://www.w3.org/2000/svg">
  <!-- Background -->
  <rect width="500" height="400" rx="16" fill="#1E3A4C"/>

  <!-- Clipboard / Checklist -->
  <rect x="150" y="60" width="200" height="280" rx="12" stroke="#D1B787" stroke-width="3" fill="none"/>
  <rect x="200" y="40" width="100" height="40" rx="8" stroke="#D1B787" stroke-width="2" fill="#1E3A4C"/>

  <!-- Checkboxes -->
  <rect x="180" y="100" width="24" height="24" rx="4" stroke="#D1B787" stroke-width="2" fill="none"/>
  <path d="M186 112L192 118L204 106" stroke="#D1B787" stroke-width="2.5" stroke-linecap="round" stroke-linejoin="round"/>
  <line x1="220" y1="112" x2="320" y2="112" stroke="#D1B787" stroke-width="2" stroke-linecap="round"/>

  <rect x="180" y="150" width="24" height="24" rx="4" stroke="#D1B787" stroke-width="2" fill="none"/>
  <path d="M186 162L192 168L204 156" stroke="#D1B787" stroke-width="2.5" stroke-linecap="round" stroke-linejoin="round"/>
  <line x1="220" y1="162" x2="300" y2="162" stroke="#D1B787" stroke-width="2" stroke-linecap="round"/>

  <rect x="180" y="200" width="24" height="24" rx="4" stroke="#D1B787" stroke-width="2" fill="none"/>
  <path d="M186 212L192 218L204 206" stroke="#D1B787" stroke-width="2.5" stroke-linecap="round" stroke-linejoin="round"/>
  <line x1="220" y1="212" x2="310" y2="212" stroke="#D1B787" stroke-width="2" stroke-linecap="round"/>

  <rect x="180" y="250" width="24" height="24" rx="4" stroke="#D1B787" stroke-width="2" fill="none"/>
  <line x1="220" y1="262" x2="280" y2="262" stroke="#D1B787" stroke-width="2" stroke-linecap="round" opacity="0.5"/>

  <rect x="180" y="300" width="24" height="24" rx="4" stroke="#D1B787" stroke-width="2" fill="none"/>
  <line x1="220" y1="312" x2="290" y2="312" stroke="#D1B787" stroke-width="2" stroke-linecap="round" opacity="0.5"/>

  <!-- Decorative dots -->
  <circle cx="80" cy="80" r="3" fill="#D1B787" opacity="0.5"/>
  <circle cx="420" cy="80" r="3" fill="#D1B787" opacity="0.5"/>
  <circle cx="80" cy="320" r="3" fill="#D1B787" opacity="0.5"/>
  <circle cx="420" cy="320" r="3" fill="#D1B787" opacity="0.5"/>
</svg>
