<svg width="500" height="400" viewBox="0 0 500 400" fill="none" xmlns="http://www.w3.org/2000/svg">
  <!-- Background -->
  <rect width="500" height="400" rx="16" fill="#1E3A4C"/>

  <!-- Heart with house inside -->
  <path d="M250 320C250 320 120 220 120 150C120 100 160 70 210 70C240 70 250 95 250 95C250 95 260 70 290 70C340 70 380 100 380 150C380 220 250 320 250 320Z" stroke="#D1B787" stroke-width="3" fill="none"/>

  <!-- Small house inside heart -->
  <path d="M250 140L210 175V240H290V175L250 140Z" stroke="#D1B787" stroke-width="2" fill="none"/>
  <rect x="235" y="200" width="30" height="40" stroke="#D1B787" stroke-width="1.5" fill="none"/>
  <circle cx="258" cy="220" r="3" fill="#D1B787"/>

  <!-- Sparkle/star elements -->
  <path d="M380 100L385 110L395 110L387 117L390 127L380 120L370 127L373 117L365 110L375 110Z" fill="#D1B787" opacity="0.6"/>
  <path d="M120 280L123 287L130 287L125 292L127 299L120 294L113 299L115 292L110 287L117 287Z" fill="#D1B787" opacity="0.6"/>

  <!-- Decorative dots -->
  <circle cx="80" cy="80" r="3" fill="#D1B787" opacity="0.5"/>
  <circle cx="420" cy="320" r="3" fill="#D1B787" opacity="0.5"/>
</svg>
