<svg width="500" height="400" viewBox="0 0 500 400" fill="none" xmlns="http://www.w3.org/2000/svg">
  <!-- Background -->
  <rect width="500" height="400" rx="16" fill="#1E3A4C"/>

  <!-- People icons in a group -->
  <!-- Person 1 (center, larger) -->
  <circle cx="250" cy="130" r="35" stroke="#D1B787" stroke-width="3" fill="none"/>
  <path d="M200 220C200 180 220 165 250 165C280 165 300 180 300 220" stroke="#D1B787" stroke-width="3" fill="none"/>

  <!-- Person 2 (left) -->
  <circle cx="140" cy="160" r="28" stroke="#D1B787" stroke-width="2" fill="none" opacity="0.7"/>
  <path d="M100 235C100 200 115 190 140 190C165 190 180 200 180 235" stroke="#D1B787" stroke-width="2" fill="none" opacity="0.7"/>

  <!-- Person 3 (right) -->
  <circle cx="360" cy="160" r="28" stroke="#D1B787" stroke-width="2" fill="none" opacity="0.7"/>
  <path d="M320 235C320 200 335 190 360 190C385 190 400 200 400 235" stroke="#D1B787" stroke-width="2" fill="none" opacity="0.7"/>

  <!-- Connecting lines (network) -->
  <line x1="180" y1="180" x2="215" y2="165" stroke="#D1B787" stroke-width="1.5" stroke-dasharray="4 2" opacity="0.5"/>
  <line x1="320" y1="180" x2="285" y2="165" stroke="#D1B787" stroke-width="1.5" stroke-dasharray="4 2" opacity="0.5"/>

  <!-- House below -->
  <path d="M250 280L190 320V370H310V320L250 280Z" stroke="#D1B787" stroke-width="2" fill="none"/>
  <rect x="235" y="340" width="30" height="30" stroke="#D1B787" stroke-width="1.5" fill="none"/>

  <!-- Decorative dots -->
  <circle cx="80" cy="80" r="3" fill="#D1B787" opacity="0.5"/>
  <circle cx="420" cy="80" r="3" fill="#D1B787" opacity="0.5"/>
</svg>
